<svg viewBox="0 0 290 100" fill="none" xmlns="http://www.w3.org/2000/svg">
<path fill-rule="evenodd" clip-rule="evenodd" d="M49.6894 16.551C48.9653 16.5443 48.2474 16.6851 47.5794 16.9647C46.9115 17.2215 46.3053 17.6163 45.8003 18.1232C45.3012 18.6502 44.9079 19.2682 44.6419 19.9436C44.3576 20.6102 44.2167 21.3291 44.2281 22.0537C44.3547 23.4237 44.9718 24.7019 45.9658 25.6531C46.979 26.6074 48.3183 27.1388 49.7101 27.1388C51.1019 27.1388 52.4412 26.6074 53.4544 25.6531C54.4484 24.7019 55.0654 23.4237 55.192 22.0537C55.2035 21.3291 55.0625 20.6102 54.7783 19.9436C54.5223 19.2632 54.1278 18.6433 53.6199 18.1232C53.0835 17.6254 52.4684 17.2199 51.7994 16.9234C51.1244 16.6728 50.4095 16.5466 49.6894 16.551V16.551Z" fill="black"/>
<path d="M53.7026 35.1689H45.6762V74.2253H53.7026V35.1689Z" fill="black"/>
<path fill-rule="evenodd" clip-rule="evenodd" d="M91.5593 41.0854C94.4555 36.7826 99.3375 34.4243 105.337 34.4243C115.101 34.4243 121.679 40.7544 121.596 50.2289V74.2254H113.446V52.2976C113.446 45.9261 110.095 42.2852 104.178 42.2852C98.2618 42.2852 94.1245 46.5053 94.1245 52.4631V74.2254H85.9326V52.2976C85.9326 45.9261 82.54 42.2852 76.6236 42.2852C70.7072 42.2852 66.5699 46.5053 66.5699 52.4631V74.2254H58.4607V35.2104H66.6526V38.5616C70.3762 35.0035 75.1755 34.4243 77.9061 34.4243C83.8225 34.4243 88.7046 36.8653 91.5593 41.0854Z" fill="black"/>
<path fill-rule="evenodd" clip-rule="evenodd" d="M146.669 34.4243C141.828 34.4243 137.649 35.9551 134.463 38.7685V35.2104H126.354V89.5336H134.463V70.3363C137.608 73.2325 141.828 74.6805 146.669 74.6805C157.757 74.6805 166.114 65.9921 166.114 54.5731C166.114 43.1541 157.757 34.4243 146.669 34.4243ZM145.965 67.0265C139.097 67.0265 134.132 61.7307 134.132 54.6145C134.132 47.4983 139.097 42.2025 145.965 42.2025C152.833 42.2025 157.839 47.4155 157.839 54.6145C157.839 61.8134 152.833 67.0265 145.965 67.0265Z" fill="black"/>
<path fill-rule="evenodd" clip-rule="evenodd" d="M277.698 67.1505C280.015 67.1505 282.538 66.2403 284.731 64.7509L285.476 64.2958L289.448 70.5845L288.786 71.081C285.43 73.5902 281.35 74.9407 277.16 74.9287C268.347 74.9287 263.465 69.7157 263.465 60.1171V42.7817H255.522V35.169H263.465V23.4603H271.616V35.169H287.131V42.7817H271.616V60.0343C271.616 64.5854 273.809 67.1505 277.698 67.1505Z" fill="black"/>
<path fill-rule="evenodd" clip-rule="evenodd" d="M218.079 94.9533C217.592 94.9442 217.114 95.089 216.714 95.3671C216.302 95.6472 215.973 96.0331 215.762 96.4841C215.576 96.9579 215.533 97.4756 215.638 97.9736C215.74 98.4527 215.968 98.8957 216.3 99.2562C216.678 99.5939 217.132 99.8352 217.624 99.9595C218.112 100.048 218.616 99.9904 219.072 99.794C219.532 99.6091 219.925 99.2884 220.199 98.8744C220.472 98.4605 220.613 97.9731 220.603 97.4771C220.609 97.1488 220.55 96.8225 220.429 96.5171C220.309 96.2117 220.128 95.9333 219.899 95.6981C219.663 95.4564 219.379 95.2658 219.066 95.1377C218.753 95.0096 218.417 94.9469 218.079 94.9533V94.9533Z" fill="black"/>
<path fill-rule="evenodd" clip-rule="evenodd" d="M231.939 83.4103C233.048 83.3847 234.15 83.5966 235.17 84.0319C236.191 84.4672 237.106 85.1158 237.855 85.934L237.979 86.1409L235.952 88.2923L235.704 88.0855C235.241 87.5472 234.661 87.1226 234.008 86.8443C233.342 86.5515 232.624 86.3967 231.898 86.3891C229.043 86.3891 226.974 88.6233 226.974 91.6436C226.974 94.6638 229.043 96.898 231.898 96.898C233.357 96.86 234.747 96.2683 235.787 95.243L235.994 94.9948L237.979 97.229L237.855 97.3944C237.091 98.1874 236.171 98.8136 235.152 99.2336C234.134 99.6537 233.04 99.8586 231.939 99.8355C227.181 99.8355 223.747 96.4429 223.747 91.6436C223.747 86.8443 227.181 83.4103 231.939 83.4103Z" fill="black"/>
<path fill-rule="evenodd" clip-rule="evenodd" d="M250.805 83.4103C246.006 83.4103 242.406 86.9684 242.406 91.6436C242.406 96.3187 246.006 99.8355 250.805 99.8355C255.604 99.8355 259.163 96.3187 259.163 91.6436C259.163 86.9684 255.563 83.4103 250.805 83.4103ZM250.805 96.898C247.826 96.898 245.675 94.7052 245.675 91.6436C245.675 88.5819 247.826 86.3892 250.805 86.3892C253.784 86.3892 255.894 88.6233 255.894 91.6436C255.894 94.6638 253.743 96.898 250.805 96.898Z" fill="black"/>
<path fill-rule="evenodd" clip-rule="evenodd" d="M286.469 90.568C286.469 87.9201 285.062 86.3893 282.538 86.3893C280.015 86.3893 278.318 88.1269 278.153 90.6507V99.8769H275.009V90.568C275.009 87.9201 273.602 86.3893 271.078 86.3893C268.554 86.3893 266.858 87.7132 266.858 90.6507V99.8769H263.714V83.7H266.858V85.1067L267.727 84.5275C268.89 83.7909 270.239 83.4033 271.616 83.4104C273.809 83.4104 275.671 84.1965 276.87 85.6445L277.284 86.141L277.739 85.6445C278.898 84.1965 280.801 83.4104 282.952 83.4104C286.883 83.4104 289.613 86.0169 289.613 89.7819V99.8769H286.469V90.568Z" fill="black"/>
<path fill-rule="evenodd" clip-rule="evenodd" d="M202.44 35.2104V38.8513C199.254 35.9551 195.117 34.4243 190.276 34.4243C179.229 34.4243 170.872 43.1541 170.872 54.6972C170.872 66.2404 179.229 74.9288 190.276 74.9288C195.117 74.9288 199.254 73.398 202.44 70.4605V74.1841H210.632V35.2104H202.44ZM191.062 67.1506C184.194 67.1506 179.147 61.8548 179.147 54.6972C179.147 47.5397 184.111 42.2025 191.062 42.2025C198.013 42.2025 202.895 47.4155 202.895 54.6972C202.895 61.9789 197.93 67.1506 191.062 67.1506Z" fill="black"/>
<path fill-rule="evenodd" clip-rule="evenodd" d="M235.497 42.2025C239.055 42.2025 242.075 43.5264 244.806 46.133L245.468 46.7536L250.805 41.2095L250.267 40.5889C246.792 36.6171 241.62 34.4243 235.704 34.4243C223.913 34.4243 215.39 42.9886 215.39 54.6972C215.39 66.4059 223.913 74.9288 235.704 74.9288C241.538 74.9288 246.751 72.736 250.267 68.8055L250.805 68.2263L245.634 62.5168L245.013 63.1788C242.512 65.6947 239.127 67.1346 235.58 67.192C228.753 67.192 223.788 61.8962 223.788 54.7386C223.788 47.581 228.629 42.2025 235.497 42.2025Z" fill="black"/>
<path d="M13.6534 44.4779C16.0238 44.4691 18.3675 44.9774 20.5213 45.9674C22.6634 46.9586 24.568 48.3976 26.1067 50.1874C26.8852 48.3822 27.3067 46.4434 27.3479 44.4779C27.3571 42.6906 27.0065 40.9197 26.317 39.2707C25.6276 37.6216 24.6133 36.1282 23.3347 34.8793C22.0523 33.6362 20.5515 32.6404 18.9078 31.9418C17.2381 31.2657 15.4547 30.9146 13.6534 30.9075C10.042 30.9086 6.57732 32.3361 4.01339 34.8793C2.73476 36.1282 1.72053 37.6216 1.03106 39.2707C0.341602 40.9197 -0.00898642 42.6906 0.000175023 44.4779C0.0414241 46.4434 0.462917 48.3822 1.24137 50.1874C2.76816 48.385 4.67578 46.9437 6.82677 45.9674C8.96086 44.9624 11.2946 44.4532 13.6534 44.4779V44.4779Z" fill="#A9B4BD"/>
<path d="M27.3479 60.6549C27.3576 57.968 26.5495 55.3417 25.031 53.125C23.5268 50.8838 21.3902 49.1405 18.8929 48.1165C16.3955 47.0925 13.65 46.8341 11.0055 47.3741C8.35684 47.8686 5.91956 49.1521 4.01336 51.0563C2.13193 52.9643 0.855488 55.3852 0.344019 58.0155C-0.167449 60.6458 0.108807 63.3686 1.13816 65.8426C2.16752 68.3166 3.90419 70.4317 6.13051 71.923C8.35683 73.4142 10.9738 74.2151 13.6533 74.2254C17.267 74.1955 20.7261 72.7555 23.2933 70.2122C25.8544 67.6872 27.312 64.2512 27.3479 60.6549Z" fill="black"/>
<path d="M27.3479 13.5721C27.3629 10.8844 26.5543 8.2566 25.031 6.0422C23.5267 3.80756 21.3968 2.0662 18.9078 1.03603C16.4055 0.0135387 13.6601 -0.259572 11.0055 0.249939C8.3631 0.777919 5.93439 2.07142 4.02169 3.96941C2.10898 5.8674 0.796765 8.28605 0.248396 10.9243C-0.2726 13.7876 0.132138 16.7424 1.4039 19.3601C2.67566 21.9779 4.74831 24.1224 7.3212 25.4826C9.89409 26.8428 12.8334 27.348 15.7128 26.9249C18.5922 26.5017 21.2619 25.1723 23.3347 23.1294C24.6009 21.8797 25.6073 20.3919 26.2961 18.7517C26.9848 17.1114 27.3423 15.3511 27.3479 13.5721V13.5721Z" fill="#F5333F"/>
</svg>
