<?xml version="1.0" encoding="UTF-8"?>
<svg id="SVGRoot" width="500" height="164.08" version="1.1" viewBox="0 0 500 164.08121" xmlns="http://www.w3.org/2000/svg" xmlns:cc="http://creativecommons.org/ns#" xmlns:dc="http://purl.org/dc/elements/1.1/" xmlns:rdf="http://www.w3.org/1999/02/22-rdf-syntax-ns#"><metadata><rdf:RDF><cc:Work rdf:about=""><dc:format>image/svg+xml</dc:format><dc:type rdf:resource="http://purl.org/dc/dcmitype/StillImage"/><dc:title/></cc:Work></rdf:RDF></metadata><g transform="translate(-158.95 -144.96)" stroke-width="1.0886"><path class="st6" d="m444.27 148.47 5.6608 11.539 12.737 1.8506c5.0076 0.76203 6.2051 4.2456 2.5038 7.838l-9.2532 9.0355 2.1772 12.737c0.87089 5.0076-2.1772 7.1848-6.6405 4.7899l-11.43-5.9874-11.43 5.9874c-4.5722 2.395-7.5114 0.21772-6.6405-4.7899l2.1772-12.737-9.2532-9.0355c-3.7013-3.5924-2.5038-7.076 2.5038-7.838l12.737-1.8506 5.6608-11.539c2.5038-4.681 6.2051-4.681 8.4912 0" fill="#fab418"/><g fill="#23282c"><path class="st7" d="m475.08 283.35h6.2051c5.2253 0 8.3823 2.6127 8.3823 7.076 0 5.0076-3.7013 7.5114-8.9266 7.5114h-3.157v10.668h-2.5038zm6.0962 2.1772h-3.5924v10.124h3.2658c3.8102 0 6.2051-1.7418 6.2051-5.2253 0-3.157-2.0684-4.8988-5.8785-4.8988z"/><path class="st7" d="m504.69 308.61-0.43544-2.2861c-1.6329 1.5241-3.5924 2.7215-6.0962 2.7215-3.0481 0-5.2253-1.6329-5.2253-4.7899 0-4.0279 3.2658-5.9874 11.213-6.7494v-1.0886c0-2.395-1.4152-3.3747-3.5924-3.3747-2.0684 0-4.0279 0.65317-5.9874 1.5241l-0.32658-2.1772c2.0684-0.8709 4.0279-1.5241 6.4228-1.5241 3.8102 0 5.8785 1.7418 5.8785 5.3342v12.41zm-0.54431-9.1444c-6.8583 0.65317-8.7089 2.395-8.7089 4.681 0 1.8506 1.3063 2.8304 3.157 2.8304s3.919-0.97975 5.6608-2.6127v-4.8988z"/><path class="st7" d="m514.6 297.72v10.886h-2.395v-17.309h1.8506l0.54431 3.5924c1.3063-1.9595 3.2658-3.8102 6.2051-3.919l0.43545 2.2861c-3.0481 0.10886-5.4431 2.1772-6.6405 4.4633z"/><path class="st7" d="m530.27 308.93c-2.7215 0-4.4633-1.0886-4.4633-4.2456v-11.322h-2.7215v-2.0684h2.7215v-5.9874l2.3949-0.43545v6.4228h4.0279l0.32659 2.0684h-4.3545v10.886c0 1.7418 0.65317 2.5038 2.6127 2.5038 0.5443 0 1.1975-0.10886 1.6329-0.21772l0.32659 2.0684c-0.65317 0.21772-1.5241 0.32658-2.5038 0.32658z"/><path class="st7" d="m552.26 309.04c-4.4633 0-7.7292-3.2658-7.7292-9.0355s3.3747-9.0355 7.7292-9.0355c4.4633 0 7.838 3.2658 7.838 9.0355 0 5.6608-3.3747 9.0355-7.838 9.0355zm0-16.111c-3.2658 0-5.3342 2.6127-5.3342 6.9671 0 4.2456 2.1772 6.9671 5.3342 6.9671 3.2658 0 5.4431-2.6127 5.4431-6.9671 0-4.1367-2.1772-6.9671-5.4431-6.9671z"/><path class="st7" d="m570.88 284.55c-1.6329 0-2.6127 0.76203-2.6127 2.7215v4.0279h3.5924l0.32658 2.0684h-3.919v15.349h-2.395v-15.349h-2.6127v-2.0684h2.6127v-4.1367c0-3.2658 1.9595-4.681 4.8988-4.681 0.5443 0 0.87089 0 1.1975 0.10886l0.32658 2.2861c-0.32658-0.21772-0.76202-0.32658-1.4152-0.32658z"/><path class="st7" d="m599.72 300.44h-10.995l-3.157 8.1646h-2.6127l10.015-25.474h2.6127l9.9064 25.147-2.5038 0.5443zm-10.233-2.2861h9.3621l-4.681-12.084z"/><path class="st7" d="m626.72 308.83h-2.1772l-4.3544-14.261-4.2456 14.261h-2.0684l-5.7696-17.418 2.3949-0.43544 4.4633 14.587 4.3544-14.37h2.1772l4.3544 14.37 4.2456-14.261h2.5038z"/><path class="st7" d="m638.04 287.16c-0.97976 0-1.7418-0.76203-1.7418-1.7418s0.76203-1.7418 1.7418-1.7418c0.97975 0 1.7418 0.76203 1.7418 1.7418s-0.76203 1.7418-1.7418 1.7418zm-1.1975 21.446v-17.309h2.395v17.309z"/><path class="st7" d="m656.55 308.61v-11.975c0-2.2861-0.97975-3.5924-3.2658-3.5924-1.8506 0-3.7013 1.0886-5.6608 3.0481v12.519h-2.395v-17.309h1.8506l0.43545 2.6127c1.9595-1.6329 3.919-2.9392 6.2051-2.9392 3.4836 0 5.2254 1.9595 5.2254 5.3342v12.41h-2.395z"/><path class="st7" d="m185.29 266.26c-8.3823 0-14.914-1.8506-19.377-5.3342-4.0279-3.2658-6.314-7.838-6.8583-13.717l-0.10886-0.97975h5.5519c1.7418 0 3.157 1.1975 3.5924 2.8304 0.65317 2.7215 2.2861 4.8988 5.1165 6.5317 3.0481 1.7418 7.1848 2.6127 12.192 2.6127 10.451 0 15.567-3.0481 15.567-9.4709 0-2.0684-0.87089-3.5924-2.6127-4.7899-1.8506-1.3063-4.3544-2.395-7.1848-3.2658-2.9393-0.87089-6.2051-1.7418-9.5798-2.5038-3.4836-0.76203-6.7494-1.7418-9.7975-3.0481-3.0481-1.3063-5.6608-2.9393-7.7292-5.0076-2.1772-2.1772-3.2658-5.1165-3.2658-8.7089 0-5.0076 1.9595-9.2532 5.8785-12.41 3.8102-3.157 9.5798-4.681 17.2-4.681s13.608 1.8506 17.853 5.3342c3.919 3.157 5.9874 7.2937 6.314 12.301v0.97975h-5.7696c-1.5241 0-2.8304-0.97975-3.2658-2.5038-0.97975-3.5924-3.7013-5.8785-8.3823-7.1848-1.9595-0.5443-4.3544-0.87089-7.2937-0.87089-2.8304 0-5.3342 0.32659-7.2937 0.97975-1.9595 0.65317-3.3747 1.4152-4.4633 2.2861-0.97975 0.87089-1.6329 1.8506-1.9595 2.8304-0.32659 1.0886-0.54431 2.2861-0.54431 3.4836 0 1.0886 0.43545 2.0684 1.4152 3.0481 1.0886 1.0886 2.5038 1.9595 4.2456 2.6127 1.8506 0.76202 3.919 1.4152 6.314 1.9595s4.8988 1.1975 7.4026 1.8506 5.0076 1.3063 7.5114 2.1772 4.7899 1.8506 6.6405 3.157c4.4633 2.8304 6.7494 6.7494 6.7494 11.648 0 5.7696-2.1772 10.233-6.5317 13.39-4.1367 2.9392-10.124 4.4633-17.527 4.4633z"/><path class="st7" d="m261.27 265.5h-5.1165c-1.8506 0-3.3747-1.5241-3.3747-3.3747v-23.187c0-3.8101-1.0886-6.8583-3.157-9.1444-2.1772-2.2861-4.8988-3.3747-8.2735-3.3747-3.4836 0-6.4228 1.0886-8.8178 3.4836-2.395 2.395-3.5924 5.3342-3.5924 9.0355v26.453h-8.4912v-63.793h8.4912v23.079c1.3063-1.4152 2.8304-2.6127 4.4633-3.7013 2.395-1.5241 5.2253-2.395 8.3823-2.395 3.0481 0 5.7696 0.43544 7.9469 1.3063 2.2861 0.87089 4.2456 2.1772 5.8785 3.919 3.8102 3.7013 5.7696 8.8178 5.7696 14.914v26.78z"/><path class="st7" d="m293.61 266.26c-6.6405 0-12.084-2.2861-16.329-6.9671-4.0279-4.5722-6.0962-10.233-6.0962-16.874s2.0684-12.301 6.0962-16.874c4.1367-4.5722 9.7975-6.9671 16.765-6.9671 5.9874 0 10.886 2.0684 14.479 6.0962v-5.4431h8.4912v46.157h-8.4912v-5.3342c-3.5924 4.1367-8.6 6.2051-14.914 6.2051zm0.87089-39.734c-4.4633 0-8.0557 1.5241-10.886 4.681-2.6127 2.9392-3.919 6.7494-3.919 11.213 0 4.5722 1.3063 8.2735 3.919 11.213 2.8304 3.157 6.314 4.681 10.777 4.681 4.5722 0 8.0557-1.524 10.668-4.681 2.5038-2.9393 3.8101-6.7494 3.8101-11.322 0-4.5722-1.3063-8.3823-3.8101-11.322-2.5038-2.9393-5.9874-4.4633-10.56-4.4633z"/><path class="st7" d="m339 265.5h-8.4912v-46.157h8.4912v7.5114c1.7418-2.8304 4.4633-5.1165 7.9469-6.7494 2.0684-0.97976 4.5722-1.5241 7.5114-1.5241h1.4152v5.2253c0 1.6329-1.1975 3.0481-2.9393 3.3747-4.7899 0.76203-7.1848 2.0684-9.7975 5.3342-2.5038 3.2658-4.0279 8.4912-4.0279 13.825v19.16z"/><path class="st7" d="m383.53 266.26c-6.8583 0-12.628-2.2861-16.982-6.9671-4.2456-4.4633-6.4228-10.124-6.4228-16.874s2.0684-12.41 6.0962-16.874c4.3545-4.5722 9.9064-6.9671 16.765-6.9671 6.8583 0 12.519 2.2861 16.765 6.9671 4.0279 4.4633 6.0962 10.124 6.0962 16.874v3.5924h-37.013c0.5443 3.3747 2.0684 6.2051 4.4633 8.4912 2.7215 2.6127 5.9874 3.8101 10.124 3.8101 5.2253 0 8.9266-1.9595 11.43-5.8785 0.65317-0.97975 1.6329-1.524 2.8304-1.524h7.1848l-0.43545 1.3063c-1.6329 4.1367-4.1367 7.6203-7.6203 10.124-3.3747 2.6127-7.838 3.919-13.281 3.919zm-14.479-28.304h27.977c-0.65317-3.157-2.0684-5.8785-4.3545-7.838-2.6127-2.395-5.8785-3.5924-9.6886-3.5924-3.8102 0-7.076 1.1975-9.6887 3.5924-2.0684 1.9595-3.5924 4.681-4.2456 7.838z"/><path class="st7" d="m470.62 265.5h-7.1848c-1.3063 0-2.6127-0.76203-3.157-2.0684l-6.314-14.914h-27.868l-6.314 14.914c-0.54431 1.1975-1.7418 2.0684-3.157 2.0684h-7.1848l24.385-57.37c0.87089-1.9595 2.7215-3.157 4.7899-3.157h2.6127c2.0684 0 4.0279 1.1975 4.7899 3.157zm-41.041-24.929h21.119l-10.56-25.256z"/><path class="st7" d="m501.75 266.26c-8.3823 0-14.914-1.8506-19.377-5.3342-4.0279-3.2658-6.314-7.838-6.8583-13.717l-0.10886-0.97975h5.5519c1.7418 0 3.157 1.1975 3.5924 2.8304 0.65317 2.7215 2.2861 4.8988 5.1165 6.5317 3.0481 1.7418 7.1848 2.6127 12.192 2.6127 10.451 0 15.567-3.0481 15.567-9.4709 0-2.0684-0.87089-3.5924-2.6127-4.7899-1.8506-1.3063-4.3544-2.395-7.1848-3.2658-2.9393-0.87089-6.2051-1.7418-9.5798-2.5038-3.4836-0.76203-6.7494-1.7418-9.7975-3.0481-3.0481-1.3063-5.6608-2.9393-7.7292-5.0076-2.1772-2.1772-3.2658-5.1165-3.2658-8.7089 0-5.0076 1.9595-9.2532 5.8785-12.41 3.8102-3.157 9.5798-4.681 17.2-4.681s13.608 1.8506 17.853 5.3342c3.919 3.157 5.9874 7.2937 6.314 12.301v0.97975h-5.7696c-1.5241 0-2.8304-0.97975-3.2658-2.5038-0.97975-3.5924-3.7013-5.8785-8.3823-7.1848-1.9595-0.5443-4.3544-0.87089-7.2937-0.87089-2.8304 0-5.3342 0.32659-7.2937 0.97975-1.9595 0.65317-3.3747 1.4152-4.4633 2.2861-0.97975 0.87089-1.6329 1.8506-1.9595 2.8304-0.32659 1.0886-0.54431 2.2861-0.54431 3.4836 0 1.0886 0.43545 2.0684 1.4152 3.0481 1.0886 1.0886 2.5038 1.9595 4.2456 2.6127 1.8506 0.76202 3.919 1.4152 6.314 1.9595 2.395 0.54431 4.8988 1.1975 7.4026 1.8506s5.0076 1.3063 7.5114 2.1772 4.7899 1.8506 6.6405 3.157c4.4633 2.8304 6.7494 6.7494 6.7494 11.648 0 5.7696-2.1772 10.233-6.5317 13.39-4.1367 2.9392-10.015 4.4633-17.527 4.4633z"/><path class="st7" d="m556.4 266.26c-6.6405 0-12.084-2.2861-16.329-6.9671-4.0279-4.5722-6.0962-10.233-6.0962-16.874s2.0684-12.301 6.0962-16.874c4.1367-4.5722 9.7975-6.9671 16.765-6.9671 5.9874 0 10.886 2.0684 14.479 6.0962v-5.4431h8.4912v46.157h-8.4912v-5.3342c-3.5924 4.1367-8.6 6.2051-14.914 6.2051zm0.87089-39.734c-4.4633 0-8.0557 1.5241-10.886 4.681-2.6127 2.9392-3.919 6.7494-3.919 11.213 0 4.5722 1.3063 8.2735 3.919 11.213 2.8304 3.157 6.314 4.681 10.777 4.681 4.5722 0 8.0557-1.524 10.668-4.681 2.5038-2.9393 3.8102-6.7494 3.8102-11.322 0-4.5722-1.3063-8.3823-3.8102-11.322-2.5038-2.9393-5.9874-4.4633-10.56-4.4633z"/><path class="st7" d="m601.79 265.5h-8.4912v-63.902h8.4912z"/><path class="st7" d="m635.98 266.26c-6.8583 0-12.628-2.2861-16.982-6.9671-4.2456-4.4633-6.4228-10.124-6.4228-16.874s2.0684-12.41 6.0962-16.874c4.3544-4.5722 9.9064-6.9671 16.765-6.9671 6.8583 0 12.519 2.2861 16.765 6.9671 4.0279 4.4633 6.0962 10.124 6.0962 16.874v3.5924h-37.013c0.54431 3.3747 2.0684 6.2051 4.4633 8.4912 2.6127 2.5038 6.0962 3.8101 10.124 3.8101 5.2253 0 8.9266-1.9595 11.43-5.8785 0.65316-0.97975 1.6329-1.524 2.8304-1.524h7.1848l-0.43545 1.3063c-1.6329 4.1367-4.1367 7.6203-7.6203 10.124-3.3747 2.6127-7.838 3.919-13.281 3.919zm-14.479-28.304h27.977c-0.65316-3.157-2.0684-5.8785-4.3544-7.838-2.6127-2.395-5.8785-3.5924-9.6887-3.5924-3.8101 0-7.076 1.1975-9.6886 3.5924-2.0684 1.9595-3.4836 4.681-4.2456 7.838z"/></g></g></svg>
